<mxfile host="app.diagrams.net" agent="Mozilla/5.0 (X11; Linux x86_64; rv:134.0) Gecko/20100101 Firefox/134.0" version="26.0.11">
  <diagram name="Page-1" id="0Ob5_BJu5XM1aFDFEZoc">
    <mxGraphModel dx="1730" dy="834" grid="1" gridSize="10" guides="1" tooltips="1" connect="1" arrows="1" fold="1" page="1" pageScale="1" pageWidth="827" pageHeight="1169" math="0" shadow="0">
      <root>
        <mxCell id="0" />
        <mxCell id="1" parent="0" />
        <mxCell id="gVsYQk-Zn65XTvtE4Vqz-76" style="rounded=0;orthogonalLoop=1;jettySize=auto;html=1;" edge="1" parent="1" source="gVsYQk-Zn65XTvtE4Vqz-66" target="gVsYQk-Zn65XTvtE4Vqz-13">
          <mxGeometry relative="1" as="geometry" />
        </mxCell>
        <mxCell id="gVsYQk-Zn65XTvtE4Vqz-75" style="rounded=0;orthogonalLoop=1;jettySize=auto;html=1;" edge="1" parent="1" source="gVsYQk-Zn65XTvtE4Vqz-66" target="gVsYQk-Zn65XTvtE4Vqz-9">
          <mxGeometry relative="1" as="geometry" />
        </mxCell>
        <mxCell id="gVsYQk-Zn65XTvtE4Vqz-1" value="" style="edgeStyle=orthogonalEdgeStyle;rounded=0;orthogonalLoop=1;jettySize=auto;html=1;endArrow=none;startFill=1;startArrow=classic;" edge="1" parent="1" source="gVsYQk-Zn65XTvtE4Vqz-3" target="gVsYQk-Zn65XTvtE4Vqz-6">
          <mxGeometry relative="1" as="geometry" />
        </mxCell>
        <mxCell id="gVsYQk-Zn65XTvtE4Vqz-2" value="" style="edgeStyle=orthogonalEdgeStyle;rounded=0;orthogonalLoop=1;jettySize=auto;html=1;endArrow=none;startFill=1;startArrow=classic;" edge="1" parent="1" source="gVsYQk-Zn65XTvtE4Vqz-3" target="gVsYQk-Zn65XTvtE4Vqz-9">
          <mxGeometry relative="1" as="geometry" />
        </mxCell>
        <mxCell id="gVsYQk-Zn65XTvtE4Vqz-3" value="User" style="whiteSpace=wrap;html=1;" vertex="1" parent="1">
          <mxGeometry x="210" y="160" width="120" height="60" as="geometry" />
        </mxCell>
        <mxCell id="gVsYQk-Zn65XTvtE4Vqz-4" value="" style="edgeStyle=orthogonalEdgeStyle;rounded=0;orthogonalLoop=1;jettySize=auto;html=1;" edge="1" parent="1" source="gVsYQk-Zn65XTvtE4Vqz-6" target="gVsYQk-Zn65XTvtE4Vqz-7">
          <mxGeometry relative="1" as="geometry" />
        </mxCell>
        <mxCell id="gVsYQk-Zn65XTvtE4Vqz-5" value="" style="edgeStyle=orthogonalEdgeStyle;rounded=0;orthogonalLoop=1;jettySize=auto;html=1;" edge="1" parent="1" source="gVsYQk-Zn65XTvtE4Vqz-6" target="gVsYQk-Zn65XTvtE4Vqz-16">
          <mxGeometry relative="1" as="geometry" />
        </mxCell>
        <mxCell id="gVsYQk-Zn65XTvtE4Vqz-6" value="has" style="rhombus;whiteSpace=wrap;html=1;" vertex="1" parent="1">
          <mxGeometry x="400" y="150" width="80" height="80" as="geometry" />
        </mxCell>
        <mxCell id="gVsYQk-Zn65XTvtE4Vqz-7" value="role" style="whiteSpace=wrap;html=1;" vertex="1" parent="1">
          <mxGeometry x="540" y="160" width="120" height="60" as="geometry" />
        </mxCell>
        <mxCell id="gVsYQk-Zn65XTvtE4Vqz-8" value="" style="edgeStyle=orthogonalEdgeStyle;rounded=0;orthogonalLoop=1;jettySize=auto;html=1;endArrow=none;startFill=0;" edge="1" parent="1" source="gVsYQk-Zn65XTvtE4Vqz-9" target="gVsYQk-Zn65XTvtE4Vqz-11">
          <mxGeometry relative="1" as="geometry" />
        </mxCell>
        <mxCell id="gVsYQk-Zn65XTvtE4Vqz-9" value="maintains" style="rhombus;whiteSpace=wrap;html=1;" vertex="1" parent="1">
          <mxGeometry x="230" y="290" width="80" height="80" as="geometry" />
        </mxCell>
        <mxCell id="gVsYQk-Zn65XTvtE4Vqz-10" value="" style="edgeStyle=orthogonalEdgeStyle;rounded=0;orthogonalLoop=1;jettySize=auto;html=1;endArrow=none;startFill=1;startArrow=classic;" edge="1" parent="1" source="gVsYQk-Zn65XTvtE4Vqz-11" target="gVsYQk-Zn65XTvtE4Vqz-13">
          <mxGeometry relative="1" as="geometry" />
        </mxCell>
        <mxCell id="gVsYQk-Zn65XTvtE4Vqz-12" value="" style="edgeStyle=orthogonalEdgeStyle;rounded=0;orthogonalLoop=1;jettySize=auto;html=1;shape=link;" edge="1" parent="1" source="gVsYQk-Zn65XTvtE4Vqz-13" target="gVsYQk-Zn65XTvtE4Vqz-15">
          <mxGeometry relative="1" as="geometry" />
        </mxCell>
        <mxCell id="gVsYQk-Zn65XTvtE4Vqz-13" value="stores" style="rhombus;whiteSpace=wrap;html=1;" vertex="1" parent="1">
          <mxGeometry x="380" y="450" width="80" height="80" as="geometry" />
        </mxCell>
        <mxCell id="gVsYQk-Zn65XTvtE4Vqz-14" value="" style="edgeStyle=none;shape=connector;rounded=0;orthogonalLoop=1;jettySize=auto;html=1;strokeColor=default;align=center;verticalAlign=middle;fontFamily=Helvetica;fontSize=11;fontColor=default;labelBackgroundColor=default;endArrow=classic;" edge="1" parent="1" source="gVsYQk-Zn65XTvtE4Vqz-15" target="gVsYQk-Zn65XTvtE4Vqz-47">
          <mxGeometry relative="1" as="geometry" />
        </mxCell>
        <mxCell id="gVsYQk-Zn65XTvtE4Vqz-15" value="Search Log" style="whiteSpace=wrap;html=1;" vertex="1" parent="1">
          <mxGeometry x="520" y="460" width="120" height="60" as="geometry" />
        </mxCell>
        <mxCell id="gVsYQk-Zn65XTvtE4Vqz-16" value="permissions" style="whiteSpace=wrap;html=1;" vertex="1" parent="1">
          <mxGeometry x="380" y="290" width="120" height="60" as="geometry" />
        </mxCell>
        <mxCell id="gVsYQk-Zn65XTvtE4Vqz-17" value="" style="rounded=0;orthogonalLoop=1;jettySize=auto;html=1;" edge="1" parent="1" source="gVsYQk-Zn65XTvtE4Vqz-18" target="gVsYQk-Zn65XTvtE4Vqz-7">
          <mxGeometry relative="1" as="geometry" />
        </mxCell>
        <mxCell id="gVsYQk-Zn65XTvtE4Vqz-18" value="role_id" style="ellipse;whiteSpace=wrap;html=1;align=center;fontStyle=4;" vertex="1" parent="1">
          <mxGeometry x="530" y="250" width="100" height="40" as="geometry" />
        </mxCell>
        <mxCell id="gVsYQk-Zn65XTvtE4Vqz-19" value="" style="rounded=0;orthogonalLoop=1;jettySize=auto;html=1;" edge="1" parent="1" source="gVsYQk-Zn65XTvtE4Vqz-20" target="gVsYQk-Zn65XTvtE4Vqz-7">
          <mxGeometry relative="1" as="geometry" />
        </mxCell>
        <mxCell id="gVsYQk-Zn65XTvtE4Vqz-20" value="role_name" style="ellipse;whiteSpace=wrap;html=1;align=center;" vertex="1" parent="1">
          <mxGeometry x="630" y="270" width="100" height="40" as="geometry" />
        </mxCell>
        <mxCell id="gVsYQk-Zn65XTvtE4Vqz-21" value="" style="rounded=0;orthogonalLoop=1;jettySize=auto;html=1;" edge="1" parent="1" source="gVsYQk-Zn65XTvtE4Vqz-22" target="gVsYQk-Zn65XTvtE4Vqz-7">
          <mxGeometry relative="1" as="geometry" />
        </mxCell>
        <mxCell id="gVsYQk-Zn65XTvtE4Vqz-22" value="role_name" style="ellipse;whiteSpace=wrap;html=1;align=center;" vertex="1" parent="1">
          <mxGeometry x="670" y="220" width="100" height="40" as="geometry" />
        </mxCell>
        <mxCell id="gVsYQk-Zn65XTvtE4Vqz-23" value="" style="edgeStyle=none;shape=connector;rounded=0;orthogonalLoop=1;jettySize=auto;html=1;strokeColor=default;align=center;verticalAlign=middle;fontFamily=Helvetica;fontSize=11;fontColor=default;labelBackgroundColor=default;endArrow=classic;" edge="1" parent="1" source="gVsYQk-Zn65XTvtE4Vqz-24" target="gVsYQk-Zn65XTvtE4Vqz-3">
          <mxGeometry relative="1" as="geometry" />
        </mxCell>
        <mxCell id="gVsYQk-Zn65XTvtE4Vqz-24" value="user_id" style="ellipse;whiteSpace=wrap;html=1;align=center;fontStyle=4;" vertex="1" parent="1">
          <mxGeometry x="60" y="150" width="100" height="40" as="geometry" />
        </mxCell>
        <mxCell id="gVsYQk-Zn65XTvtE4Vqz-25" value="" style="edgeStyle=none;shape=connector;rounded=0;orthogonalLoop=1;jettySize=auto;html=1;strokeColor=default;align=center;verticalAlign=middle;fontFamily=Helvetica;fontSize=11;fontColor=default;labelBackgroundColor=default;endArrow=classic;" edge="1" parent="1" source="gVsYQk-Zn65XTvtE4Vqz-26" target="gVsYQk-Zn65XTvtE4Vqz-3">
          <mxGeometry relative="1" as="geometry" />
        </mxCell>
        <mxCell id="gVsYQk-Zn65XTvtE4Vqz-26" value="user name" style="ellipse;whiteSpace=wrap;html=1;align=center;" vertex="1" parent="1">
          <mxGeometry x="50" y="200" width="100" height="40" as="geometry" />
        </mxCell>
        <mxCell id="gVsYQk-Zn65XTvtE4Vqz-27" value="" style="edgeStyle=none;shape=connector;rounded=0;orthogonalLoop=1;jettySize=auto;html=1;strokeColor=default;align=center;verticalAlign=middle;fontFamily=Helvetica;fontSize=11;fontColor=default;labelBackgroundColor=default;endArrow=classic;" edge="1" parent="1" source="gVsYQk-Zn65XTvtE4Vqz-28" target="gVsYQk-Zn65XTvtE4Vqz-3">
          <mxGeometry relative="1" as="geometry" />
        </mxCell>
        <mxCell id="gVsYQk-Zn65XTvtE4Vqz-28" value="phone number" style="ellipse;whiteSpace=wrap;html=1;align=center;" vertex="1" parent="1">
          <mxGeometry x="140" y="110" width="100" height="40" as="geometry" />
        </mxCell>
        <mxCell id="gVsYQk-Zn65XTvtE4Vqz-29" value="" style="edgeStyle=none;shape=connector;rounded=0;orthogonalLoop=1;jettySize=auto;html=1;strokeColor=default;align=center;verticalAlign=middle;fontFamily=Helvetica;fontSize=11;fontColor=default;labelBackgroundColor=default;endArrow=classic;" edge="1" parent="1" source="gVsYQk-Zn65XTvtE4Vqz-30" target="gVsYQk-Zn65XTvtE4Vqz-3">
          <mxGeometry relative="1" as="geometry" />
        </mxCell>
        <mxCell id="gVsYQk-Zn65XTvtE4Vqz-30" value="contact address" style="ellipse;whiteSpace=wrap;html=1;align=center;" vertex="1" parent="1">
          <mxGeometry x="294" y="240" width="100" height="40" as="geometry" />
        </mxCell>
        <mxCell id="gVsYQk-Zn65XTvtE4Vqz-31" value="" style="edgeStyle=none;shape=connector;rounded=0;orthogonalLoop=1;jettySize=auto;html=1;strokeColor=default;align=center;verticalAlign=middle;fontFamily=Helvetica;fontSize=11;fontColor=default;labelBackgroundColor=default;endArrow=classic;" edge="1" parent="1" source="gVsYQk-Zn65XTvtE4Vqz-32" target="gVsYQk-Zn65XTvtE4Vqz-3">
          <mxGeometry relative="1" as="geometry" />
        </mxCell>
        <mxCell id="gVsYQk-Zn65XTvtE4Vqz-32" value="email" style="ellipse;whiteSpace=wrap;html=1;align=center;" vertex="1" parent="1">
          <mxGeometry x="140" y="230" width="100" height="40" as="geometry" />
        </mxCell>
        <mxCell id="gVsYQk-Zn65XTvtE4Vqz-33" value="" style="edgeStyle=none;shape=connector;rounded=0;orthogonalLoop=1;jettySize=auto;html=1;strokeColor=default;align=center;verticalAlign=middle;fontFamily=Helvetica;fontSize=11;fontColor=default;labelBackgroundColor=default;endArrow=classic;" edge="1" parent="1" source="gVsYQk-Zn65XTvtE4Vqz-34">
          <mxGeometry relative="1" as="geometry">
            <mxPoint x="210" y="483" as="targetPoint" />
          </mxGeometry>
        </mxCell>
        <mxCell id="gVsYQk-Zn65XTvtE4Vqz-34" value="contact_id" style="ellipse;whiteSpace=wrap;html=1;align=center;fontStyle=4;" vertex="1" parent="1">
          <mxGeometry x="60" y="450" width="100" height="40" as="geometry" />
        </mxCell>
        <mxCell id="gVsYQk-Zn65XTvtE4Vqz-35" value="" style="edgeStyle=none;shape=connector;rounded=0;orthogonalLoop=1;jettySize=auto;html=1;strokeColor=default;align=center;verticalAlign=middle;fontFamily=Helvetica;fontSize=11;fontColor=default;labelBackgroundColor=default;endArrow=classic;" edge="1" parent="1" source="gVsYQk-Zn65XTvtE4Vqz-36">
          <mxGeometry relative="1" as="geometry">
            <mxPoint x="210" y="501" as="targetPoint" />
          </mxGeometry>
        </mxCell>
        <mxCell id="gVsYQk-Zn65XTvtE4Vqz-36" value="user name" style="ellipse;whiteSpace=wrap;html=1;align=center;" vertex="1" parent="1">
          <mxGeometry x="50" y="500" width="100" height="40" as="geometry" />
        </mxCell>
        <mxCell id="gVsYQk-Zn65XTvtE4Vqz-37" value="" style="edgeStyle=none;shape=connector;rounded=0;orthogonalLoop=1;jettySize=auto;html=1;strokeColor=default;align=center;verticalAlign=middle;fontFamily=Helvetica;fontSize=11;fontColor=default;labelBackgroundColor=default;endArrow=classic;" edge="1" parent="1" source="gVsYQk-Zn65XTvtE4Vqz-38">
          <mxGeometry relative="1" as="geometry">
            <mxPoint x="230" y="460" as="targetPoint" />
          </mxGeometry>
        </mxCell>
        <mxCell id="gVsYQk-Zn65XTvtE4Vqz-38" value="phone_number" style="ellipse;whiteSpace=wrap;html=1;align=center;" vertex="1" parent="1">
          <mxGeometry x="140" y="410" width="100" height="40" as="geometry" />
        </mxCell>
        <mxCell id="gVsYQk-Zn65XTvtE4Vqz-39" value="" style="edgeStyle=none;shape=connector;rounded=0;orthogonalLoop=1;jettySize=auto;html=1;strokeColor=default;align=center;verticalAlign=middle;fontFamily=Helvetica;fontSize=11;fontColor=default;labelBackgroundColor=default;endArrow=classic;" edge="1" parent="1" source="gVsYQk-Zn65XTvtE4Vqz-40">
          <mxGeometry relative="1" as="geometry">
            <mxPoint x="230" y="520" as="targetPoint" />
          </mxGeometry>
        </mxCell>
        <mxCell id="gVsYQk-Zn65XTvtE4Vqz-40" value="email" style="ellipse;whiteSpace=wrap;html=1;align=center;" vertex="1" parent="1">
          <mxGeometry x="140" y="530" width="100" height="40" as="geometry" />
        </mxCell>
        <mxCell id="gVsYQk-Zn65XTvtE4Vqz-41" value="profile description" style="ellipse;whiteSpace=wrap;html=1;align=center;" vertex="1" parent="1">
          <mxGeometry x="250" y="100" width="100" height="40" as="geometry" />
        </mxCell>
        <mxCell id="gVsYQk-Zn65XTvtE4Vqz-42" style="edgeStyle=none;shape=connector;rounded=0;orthogonalLoop=1;jettySize=auto;html=1;entryX=0.433;entryY=0.031;entryDx=0;entryDy=0;entryPerimeter=0;strokeColor=default;align=center;verticalAlign=middle;fontFamily=Helvetica;fontSize=11;fontColor=default;labelBackgroundColor=default;endArrow=classic;" edge="1" parent="1" source="gVsYQk-Zn65XTvtE4Vqz-41" target="gVsYQk-Zn65XTvtE4Vqz-3">
          <mxGeometry relative="1" as="geometry" />
        </mxCell>
        <mxCell id="gVsYQk-Zn65XTvtE4Vqz-43" value="" style="edgeStyle=none;shape=connector;rounded=0;orthogonalLoop=1;jettySize=auto;html=1;strokeColor=default;align=center;verticalAlign=middle;fontFamily=Helvetica;fontSize=11;fontColor=default;labelBackgroundColor=default;endArrow=classic;" edge="1" parent="1" source="gVsYQk-Zn65XTvtE4Vqz-44" target="gVsYQk-Zn65XTvtE4Vqz-15">
          <mxGeometry relative="1" as="geometry" />
        </mxCell>
        <mxCell id="gVsYQk-Zn65XTvtE4Vqz-44" value="contact_id" style="ellipse;whiteSpace=wrap;html=1;align=center;fontStyle=4;fontFamily=Helvetica;fontSize=11;fontColor=default;labelBackgroundColor=default;" vertex="1" parent="1">
          <mxGeometry x="460" y="410" width="100" height="40" as="geometry" />
        </mxCell>
        <mxCell id="gVsYQk-Zn65XTvtE4Vqz-45" value="" style="edgeStyle=none;shape=connector;rounded=0;orthogonalLoop=1;jettySize=auto;html=1;strokeColor=default;align=center;verticalAlign=middle;fontFamily=Helvetica;fontSize=11;fontColor=default;labelBackgroundColor=default;endArrow=classic;" edge="1" parent="1" source="gVsYQk-Zn65XTvtE4Vqz-46" target="gVsYQk-Zn65XTvtE4Vqz-15">
          <mxGeometry relative="1" as="geometry" />
        </mxCell>
        <mxCell id="gVsYQk-Zn65XTvtE4Vqz-46" value="log_id" style="ellipse;whiteSpace=wrap;html=1;align=center;fontStyle=4;fontFamily=Helvetica;fontSize=11;fontColor=default;labelBackgroundColor=default;" vertex="1" parent="1">
          <mxGeometry x="570" y="390" width="100" height="40" as="geometry" />
        </mxCell>
        <mxCell id="gVsYQk-Zn65XTvtE4Vqz-47" value="search time" style="ellipse;whiteSpace=wrap;html=1;" vertex="1" parent="1">
          <mxGeometry x="490" y="545" width="80" height="40" as="geometry" />
        </mxCell>
        <mxCell id="gVsYQk-Zn65XTvtE4Vqz-48" value="search query" style="ellipse;whiteSpace=wrap;html=1;align=center;" vertex="1" parent="1">
          <mxGeometry x="590" y="540" width="100" height="40" as="geometry" />
        </mxCell>
        <mxCell id="gVsYQk-Zn65XTvtE4Vqz-49" style="edgeStyle=none;shape=connector;rounded=0;orthogonalLoop=1;jettySize=auto;html=1;entryX=0.836;entryY=0.993;entryDx=0;entryDy=0;entryPerimeter=0;strokeColor=default;align=center;verticalAlign=middle;fontFamily=Helvetica;fontSize=11;fontColor=default;labelBackgroundColor=default;endArrow=classic;" edge="1" parent="1" source="gVsYQk-Zn65XTvtE4Vqz-48" target="gVsYQk-Zn65XTvtE4Vqz-15">
          <mxGeometry relative="1" as="geometry" />
        </mxCell>
        <mxCell id="gVsYQk-Zn65XTvtE4Vqz-50" style="edgeStyle=none;shape=connector;rounded=0;orthogonalLoop=1;jettySize=auto;html=1;strokeColor=default;align=center;verticalAlign=middle;fontFamily=Helvetica;fontSize=11;fontColor=default;labelBackgroundColor=default;endArrow=classic;" edge="1" parent="1" source="gVsYQk-Zn65XTvtE4Vqz-51" target="gVsYQk-Zn65XTvtE4Vqz-16">
          <mxGeometry relative="1" as="geometry" />
        </mxCell>
        <mxCell id="gVsYQk-Zn65XTvtE4Vqz-51" value="Permission name" style="ellipse;whiteSpace=wrap;html=1;align=center;fontFamily=Helvetica;fontSize=11;fontColor=default;labelBackgroundColor=default;" vertex="1" parent="1">
          <mxGeometry x="470" y="360" width="100" height="40" as="geometry" />
        </mxCell>
        <mxCell id="gVsYQk-Zn65XTvtE4Vqz-52" value="" style="edgeStyle=none;shape=connector;rounded=0;orthogonalLoop=1;jettySize=auto;html=1;strokeColor=default;align=center;verticalAlign=middle;fontFamily=Helvetica;fontSize=11;fontColor=default;labelBackgroundColor=default;endArrow=classic;" edge="1" parent="1" source="gVsYQk-Zn65XTvtE4Vqz-53" target="gVsYQk-Zn65XTvtE4Vqz-16">
          <mxGeometry relative="1" as="geometry" />
        </mxCell>
        <mxCell id="gVsYQk-Zn65XTvtE4Vqz-53" value="&lt;u&gt;Permission ID&lt;br&gt;&lt;/u&gt;" style="ellipse;whiteSpace=wrap;html=1;align=center;fontFamily=Helvetica;fontSize=11;fontColor=default;labelBackgroundColor=default;" vertex="1" parent="1">
          <mxGeometry x="550" y="330" width="100" height="40" as="geometry" />
        </mxCell>
        <mxCell id="gVsYQk-Zn65XTvtE4Vqz-64" style="rounded=0;orthogonalLoop=1;jettySize=auto;html=1;" edge="1" parent="1" source="gVsYQk-Zn65XTvtE4Vqz-55" target="gVsYQk-Zn65XTvtE4Vqz-9">
          <mxGeometry relative="1" as="geometry" />
        </mxCell>
        <mxCell id="gVsYQk-Zn65XTvtE4Vqz-65" style="rounded=0;orthogonalLoop=1;jettySize=auto;html=1;entryX=0.5;entryY=1;entryDx=0;entryDy=0;exitX=1;exitY=0;exitDx=0;exitDy=0;" edge="1" parent="1" source="gVsYQk-Zn65XTvtE4Vqz-55" target="gVsYQk-Zn65XTvtE4Vqz-13">
          <mxGeometry relative="1" as="geometry" />
        </mxCell>
        <mxCell id="gVsYQk-Zn65XTvtE4Vqz-55" value="Photo" style="whiteSpace=wrap;html=1;" vertex="1" parent="1">
          <mxGeometry x="290" y="620" width="120" height="60" as="geometry" />
        </mxCell>
        <mxCell id="gVsYQk-Zn65XTvtE4Vqz-56" value="" style="edgeStyle=none;shape=connector;rounded=0;orthogonalLoop=1;jettySize=auto;html=1;strokeColor=default;align=center;verticalAlign=middle;fontFamily=Helvetica;fontSize=11;fontColor=default;labelBackgroundColor=default;endArrow=classic;" edge="1" source="gVsYQk-Zn65XTvtE4Vqz-57" parent="1">
          <mxGeometry relative="1" as="geometry">
            <mxPoint x="290" y="643" as="targetPoint" />
          </mxGeometry>
        </mxCell>
        <mxCell id="gVsYQk-Zn65XTvtE4Vqz-57" value="photo_ID" style="ellipse;whiteSpace=wrap;html=1;align=center;fontStyle=4;" vertex="1" parent="1">
          <mxGeometry x="140" y="610" width="100" height="40" as="geometry" />
        </mxCell>
        <mxCell id="gVsYQk-Zn65XTvtE4Vqz-58" value="" style="edgeStyle=none;shape=connector;rounded=0;orthogonalLoop=1;jettySize=auto;html=1;strokeColor=default;align=center;verticalAlign=middle;fontFamily=Helvetica;fontSize=11;fontColor=default;labelBackgroundColor=default;endArrow=classic;" edge="1" source="gVsYQk-Zn65XTvtE4Vqz-59" parent="1">
          <mxGeometry relative="1" as="geometry">
            <mxPoint x="290" y="661" as="targetPoint" />
          </mxGeometry>
        </mxCell>
        <mxCell id="gVsYQk-Zn65XTvtE4Vqz-59" value="photo_name" style="ellipse;whiteSpace=wrap;html=1;align=center;" vertex="1" parent="1">
          <mxGeometry x="130" y="660" width="100" height="40" as="geometry" />
        </mxCell>
        <mxCell id="gVsYQk-Zn65XTvtE4Vqz-60" value="" style="edgeStyle=none;shape=connector;rounded=0;orthogonalLoop=1;jettySize=auto;html=1;strokeColor=default;align=center;verticalAlign=middle;fontFamily=Helvetica;fontSize=11;fontColor=default;labelBackgroundColor=default;endArrow=classic;" edge="1" source="gVsYQk-Zn65XTvtE4Vqz-61" parent="1">
          <mxGeometry relative="1" as="geometry">
            <mxPoint x="310" y="620" as="targetPoint" />
          </mxGeometry>
        </mxCell>
        <mxCell id="gVsYQk-Zn65XTvtE4Vqz-61" value="photo_extension" style="ellipse;whiteSpace=wrap;html=1;align=center;" vertex="1" parent="1">
          <mxGeometry x="220" y="570" width="100" height="40" as="geometry" />
        </mxCell>
        <mxCell id="gVsYQk-Zn65XTvtE4Vqz-62" value="" style="edgeStyle=none;shape=connector;rounded=0;orthogonalLoop=1;jettySize=auto;html=1;strokeColor=default;align=center;verticalAlign=middle;fontFamily=Helvetica;fontSize=11;fontColor=default;labelBackgroundColor=default;endArrow=classic;" edge="1" source="gVsYQk-Zn65XTvtE4Vqz-63" parent="1">
          <mxGeometry relative="1" as="geometry">
            <mxPoint x="310" y="680" as="targetPoint" />
          </mxGeometry>
        </mxCell>
        <mxCell id="gVsYQk-Zn65XTvtE4Vqz-63" value="photo_desc" style="ellipse;whiteSpace=wrap;html=1;align=center;" vertex="1" parent="1">
          <mxGeometry x="220" y="690" width="100" height="40" as="geometry" />
        </mxCell>
        <mxCell id="gVsYQk-Zn65XTvtE4Vqz-11" value="Friends" style="whiteSpace=wrap;html=1;" vertex="1" parent="1">
          <mxGeometry x="210" y="460" width="120" height="60" as="geometry" />
        </mxCell>
        <mxCell id="gVsYQk-Zn65XTvtE4Vqz-66" value="Post" style="whiteSpace=wrap;html=1;" vertex="1" parent="1">
          <mxGeometry x="570" y="640" width="120" height="60" as="geometry" />
        </mxCell>
        <mxCell id="gVsYQk-Zn65XTvtE4Vqz-67" value="" style="edgeStyle=none;shape=connector;rounded=0;orthogonalLoop=1;jettySize=auto;html=1;strokeColor=default;align=center;verticalAlign=middle;fontFamily=Helvetica;fontSize=11;fontColor=default;labelBackgroundColor=default;endArrow=classic;entryX=1;entryY=0.25;entryDx=0;entryDy=0;" edge="1" source="gVsYQk-Zn65XTvtE4Vqz-68" parent="1" target="gVsYQk-Zn65XTvtE4Vqz-66">
          <mxGeometry relative="1" as="geometry">
            <mxPoint x="570" y="663" as="targetPoint" />
          </mxGeometry>
        </mxCell>
        <mxCell id="gVsYQk-Zn65XTvtE4Vqz-68" value="post_ID" style="ellipse;whiteSpace=wrap;html=1;align=center;fontStyle=4;" vertex="1" parent="1">
          <mxGeometry x="710" y="610" width="100" height="40" as="geometry" />
        </mxCell>
        <mxCell id="gVsYQk-Zn65XTvtE4Vqz-69" value="" style="edgeStyle=none;shape=connector;rounded=0;orthogonalLoop=1;jettySize=auto;html=1;strokeColor=default;align=center;verticalAlign=middle;fontFamily=Helvetica;fontSize=11;fontColor=default;labelBackgroundColor=default;endArrow=classic;" edge="1" source="gVsYQk-Zn65XTvtE4Vqz-70" parent="1">
          <mxGeometry relative="1" as="geometry">
            <mxPoint x="570" y="681" as="targetPoint" />
          </mxGeometry>
        </mxCell>
        <mxCell id="gVsYQk-Zn65XTvtE4Vqz-70" value="post_name" style="ellipse;whiteSpace=wrap;html=1;align=center;" vertex="1" parent="1">
          <mxGeometry x="480" y="700" width="100" height="40" as="geometry" />
        </mxCell>
        <mxCell id="gVsYQk-Zn65XTvtE4Vqz-71" value="" style="edgeStyle=none;shape=connector;rounded=0;orthogonalLoop=1;jettySize=auto;html=1;strokeColor=default;align=center;verticalAlign=middle;fontFamily=Helvetica;fontSize=11;fontColor=default;labelBackgroundColor=default;endArrow=classic;" edge="1" source="gVsYQk-Zn65XTvtE4Vqz-72" parent="1">
          <mxGeometry relative="1" as="geometry">
            <mxPoint x="590" y="640" as="targetPoint" />
          </mxGeometry>
        </mxCell>
        <mxCell id="gVsYQk-Zn65XTvtE4Vqz-72" value="post_attachment" style="ellipse;whiteSpace=wrap;html=1;align=center;" vertex="1" parent="1">
          <mxGeometry x="620" y="585" width="100" height="40" as="geometry" />
        </mxCell>
        <mxCell id="gVsYQk-Zn65XTvtE4Vqz-73" value="" style="edgeStyle=none;shape=connector;rounded=0;orthogonalLoop=1;jettySize=auto;html=1;strokeColor=default;align=center;verticalAlign=middle;fontFamily=Helvetica;fontSize=11;fontColor=default;labelBackgroundColor=default;endArrow=classic;" edge="1" source="gVsYQk-Zn65XTvtE4Vqz-74" parent="1">
          <mxGeometry relative="1" as="geometry">
            <mxPoint x="590" y="700" as="targetPoint" />
          </mxGeometry>
        </mxCell>
        <mxCell id="gVsYQk-Zn65XTvtE4Vqz-74" value="post_desc" style="ellipse;whiteSpace=wrap;html=1;align=center;" vertex="1" parent="1">
          <mxGeometry x="650" y="710" width="100" height="40" as="geometry" />
        </mxCell>
        <mxCell id="gVsYQk-Zn65XTvtE4Vqz-86" style="rounded=0;orthogonalLoop=1;jettySize=auto;html=1;" edge="1" parent="1" source="gVsYQk-Zn65XTvtE4Vqz-77" target="gVsYQk-Zn65XTvtE4Vqz-13">
          <mxGeometry relative="1" as="geometry" />
        </mxCell>
        <mxCell id="gVsYQk-Zn65XTvtE4Vqz-87" style="rounded=0;orthogonalLoop=1;jettySize=auto;html=1;" edge="1" parent="1" source="gVsYQk-Zn65XTvtE4Vqz-77" target="gVsYQk-Zn65XTvtE4Vqz-9">
          <mxGeometry relative="1" as="geometry" />
        </mxCell>
        <mxCell id="gVsYQk-Zn65XTvtE4Vqz-77" value="Share" style="whiteSpace=wrap;html=1;" vertex="1" parent="1">
          <mxGeometry x="433" y="750" width="120" height="60" as="geometry" />
        </mxCell>
        <mxCell id="gVsYQk-Zn65XTvtE4Vqz-78" value="" style="edgeStyle=none;shape=connector;rounded=0;orthogonalLoop=1;jettySize=auto;html=1;strokeColor=default;align=center;verticalAlign=middle;fontFamily=Helvetica;fontSize=11;fontColor=default;labelBackgroundColor=default;endArrow=classic;" edge="1" source="gVsYQk-Zn65XTvtE4Vqz-79" parent="1">
          <mxGeometry relative="1" as="geometry">
            <mxPoint x="433" y="773" as="targetPoint" />
          </mxGeometry>
        </mxCell>
        <mxCell id="gVsYQk-Zn65XTvtE4Vqz-79" value="share_ID" style="ellipse;whiteSpace=wrap;html=1;align=center;fontStyle=4;" vertex="1" parent="1">
          <mxGeometry x="283" y="740" width="100" height="40" as="geometry" />
        </mxCell>
        <mxCell id="gVsYQk-Zn65XTvtE4Vqz-80" value="" style="edgeStyle=none;shape=connector;rounded=0;orthogonalLoop=1;jettySize=auto;html=1;strokeColor=default;align=center;verticalAlign=middle;fontFamily=Helvetica;fontSize=11;fontColor=default;labelBackgroundColor=default;endArrow=classic;" edge="1" source="gVsYQk-Zn65XTvtE4Vqz-81" parent="1">
          <mxGeometry relative="1" as="geometry">
            <mxPoint x="433" y="791" as="targetPoint" />
          </mxGeometry>
        </mxCell>
        <mxCell id="gVsYQk-Zn65XTvtE4Vqz-81" value="share_URL" style="ellipse;whiteSpace=wrap;html=1;align=center;" vertex="1" parent="1">
          <mxGeometry x="273" y="790" width="100" height="40" as="geometry" />
        </mxCell>
        <mxCell id="gVsYQk-Zn65XTvtE4Vqz-82" value="" style="edgeStyle=none;shape=connector;rounded=0;orthogonalLoop=1;jettySize=auto;html=1;strokeColor=default;align=center;verticalAlign=middle;fontFamily=Helvetica;fontSize=11;fontColor=default;labelBackgroundColor=default;endArrow=classic;entryX=0.404;entryY=1.043;entryDx=0;entryDy=0;entryPerimeter=0;" edge="1" source="gVsYQk-Zn65XTvtE4Vqz-83" parent="1" target="gVsYQk-Zn65XTvtE4Vqz-77">
          <mxGeometry relative="1" as="geometry">
            <mxPoint x="453" y="750" as="targetPoint" />
          </mxGeometry>
        </mxCell>
        <mxCell id="gVsYQk-Zn65XTvtE4Vqz-83" value="share_extension" style="ellipse;whiteSpace=wrap;html=1;align=center;" vertex="1" parent="1">
          <mxGeometry x="430" y="830" width="100" height="40" as="geometry" />
        </mxCell>
      </root>
    </mxGraphModel>
  </diagram>
</mxfile>
